<?xml version="1.0" encoding="utf-8"?>
<svg xmlns="http://www.w3.org/2000/svg" viewBox="0 0 500 500">
  <g style="" transform="matrix(1.40169, 0, 0, 1.40169, -54.90324, -98.810951)">
    <title>gitbox</title>
    <path d="M 76.016 92.547 C 70.596 94.01 66.153 97.501 63.772 102.171 C 63.428 102.841 62.869 104.419 62.522 105.676 C 61.729 108.571 61.853 113.09 62.806 116.074 C 64.374 120.973 69.712 126.311 74.528 127.799 C 77.222 128.63 81.798 128.849 84.416 128.271 L 86.47 127.818 L 94.685 136.096 C 99.202 140.649 107.29 148.803 112.662 154.216 L 122.422 164.058 L 122.422 210.502 L 122.422 256.945 L 140.985 256.907 C 151.196 256.885 160.547 256.881 161.764 256.897 L 163.979 256.927 L 164.595 258.76 C 165.689 262.017 171.649 278.741 172.289 280.349 L 172.908 281.906 L 172.188 282.843 C 171.792 283.359 171.231 283.994 170.938 284.255 C 170.213 284.905 149.285 306.04 137.977 317.542 C 132.893 322.714 124.779 330.968 119.945 335.886 C 94.893 361.377 86.496 369.662 85.892 369.498 C 82.112 368.467 77.175 368.562 74.316 369.718 C 68.606 372.025 64.491 376.328 62.769 381.806 C 61.836 384.764 61.849 389.472 62.797 392.517 C 64.154 396.883 67.229 400.687 71.403 403.164 C 77.476 406.773 85.144 406.418 91.219 402.255 C 93.373 400.783 94.743 399.341 96.291 396.921 L 97.508 395.019 L 128.383 395.058 C 145.362 395.082 160.42 395.013 161.841 394.912 L 164.427 394.716 L 175.772 383.272 C 182.011 376.979 195.668 363.229 206.121 352.714 C 216.575 342.206 225.248 333.287 225.397 332.898 C 225.555 332.484 225.601 326.409 225.51 318.244 L 225.354 304.299 L 226.056 303.855 C 226.442 303.61 227.418 303.169 228.225 302.876 C 229.033 302.583 230.089 302.167 230.573 301.953 C 231.057 301.738 233.897 300.58 236.883 299.379 C 239.869 298.178 244.109 296.389 246.305 295.404 C 248.501 294.419 250.434 293.612 250.601 293.612 C 250.905 293.612 260.888 303.6 275.517 318.539 C 287.491 330.766 311.094 354.794 325.106 369.017 C 337.31 381.409 337.249 381.338 336.93 382.185 C 336.307 383.822 336.054 386.868 336.348 389.219 C 336.956 394.059 338.7 397.497 342.249 400.845 C 346.679 405.022 352.913 406.652 358.764 405.155 C 364.738 403.626 368.963 400.144 371.438 394.716 C 373.917 389.288 373.521 382.982 370.366 377.598 C 369.054 375.361 365.954 372.316 363.89 371.241 L 362.203 370.356 L 362.203 346.07 L 362.202 321.781 L 359.168 316.574 C 356.268 311.593 349.485 300.436 348.423 298.896 C 347.949 298.208 346.294 295.555 339.816 285.101 C 338.366 282.76 336.755 280.185 336.237 279.378 C 335.718 278.571 332.588 273.486 329.28 268.079 C 320.907 254.394 321.077 254.668 317.13 248.358 C 315.181 245.241 313.337 242.263 313.031 241.738 L 312.476 240.784 L 291.877 240.784 L 271.279 240.784 L 270.979 239.978 C 270.515 238.723 268.279 232.48 265.7 225.23 C 264.408 221.598 263.067 217.909 262.72 217.031 L 262.089 215.436 L 269.562 207.933 C 273.673 203.806 279.26 198.12 281.979 195.296 C 284.698 192.471 292.609 184.415 299.557 177.393 C 306.507 170.371 320.359 156.337 330.337 146.208 C 340.317 136.08 348.63 127.797 348.811 127.803 C 348.993 127.808 349.934 128.004 350.903 128.238 C 361.568 130.814 372.46 122.539 372.999 111.451 C 373.681 97.37 359.265 87.734 346.739 93.898 C 341.175 96.635 337.636 101.419 336.653 107.529 C 336.27 109.916 336.432 112.826 337.067 114.936 L 337.473 116.283 L 327.749 126.074 C 307.77 146.189 276.373 178.009 261.257 193.462 C 255.535 199.313 250.747 204.099 250.619 204.099 C 250.492 204.099 249.032 203.485 247.377 202.735 C 244.177 201.286 234.851 197.341 229.253 195.068 C 227.396 194.315 225.842 193.68 225.797 193.658 C 225.754 193.636 225.722 184.755 225.726 173.921 L 225.735 154.224 L 201.03 129.415 L 176.324 104.607 L 137.12 104.598 L 97.916 104.587 L 96.781 102.238 C 95.301 99.183 92.084 95.845 89.111 94.283 C 84.953 92.098 80.075 91.451 76.016 92.547 M 102.172 120.722 C 102.172 120.854 102.8 121.553 103.566 122.277 C 106.245 124.804 154.166 173.382 167.47 187.057 C 179.096 199.008 184.133 203.948 184.597 203.854 C 185.079 203.757 188.915 202.167 199.903 197.509 C 203.051 196.175 206.419 194.77 207.387 194.384 C 208.356 194 209.237 193.562 209.345 193.41 C 209.601 193.051 209.601 163.196 209.345 161.779 C 209.173 160.827 206.693 158.224 189.13 140.568 L 169.113 120.442 L 135.643 120.463 C 117.233 120.475 102.172 120.592 102.172 120.722 M 138.565 210.734 L 138.565 240.784 L 151.258 240.782 L 163.951 240.78 L 165.389 236.6 C 166.179 234.302 168.128 228.727 169.718 224.213 C 171.308 219.699 172.609 215.806 172.609 215.562 C 172.609 215.317 168.546 211.02 163.58 206.012 C 158.614 201.006 150.953 193.258 146.558 188.796 L 138.565 180.683 L 138.565 210.734 M 214.578 208.698 C 213.206 209.262 210.036 210.626 207.534 211.73 C 205.033 212.834 201.731 214.229 200.197 214.83 C 198.664 215.43 197.247 216.07 197.048 216.25 C 196.772 216.504 199.511 219.406 208.795 228.696 L 220.903 240.81 L 237.443 240.806 C 246.541 240.805 254.042 240.746 254.112 240.676 C 254.182 240.606 253.911 239.644 253.511 238.539 C 252.822 236.638 249.734 228.216 247.608 222.442 L 246.636 219.8 L 240.071 217.07 C 236.461 215.567 229.979 212.827 225.665 210.979 C 221.352 209.132 217.654 207.633 217.448 207.647 C 217.242 207.661 215.95 208.133 214.578 208.698 M 185.372 228.39 C 185.207 228.508 184.789 229.53 184.444 230.659 C 183.616 233.353 181.228 240.044 179.535 244.409 C 178.793 246.321 178.186 248.196 178.186 248.576 C 178.186 248.954 178.975 251.417 179.939 254.049 C 180.903 256.681 182.372 260.815 183.205 263.236 C 184.801 267.878 185.388 269.253 185.773 269.253 C 186.235 269.253 205.774 249.242 205.774 248.769 C 205.774 248.115 185.752 228.115 185.372 228.39 M 221.294 256.861 C 220.728 256.933 217.398 260.137 208.674 269.005 C 202.156 275.631 196.876 281.139 196.94 281.243 C 197.005 281.347 197.864 281.781 198.848 282.208 C 199.832 282.635 202.354 283.737 204.452 284.657 C 213.281 288.529 217.001 290.091 217.395 290.091 C 217.792 290.091 219.064 289.574 226.465 286.41 C 229.337 285.181 234.732 282.907 243.78 279.107 L 246.714 277.874 L 247.959 274.517 C 248.643 272.671 249.59 270.104 250.063 268.813 C 250.536 267.521 251.712 264.351 252.675 261.769 C 253.639 259.186 254.383 257.025 254.327 256.965 C 254.203 256.831 222.34 256.73 221.294 256.861 M 271.762 256.851 C 271.495 256.911 271.192 257.315 271.087 257.75 C 270.983 258.185 270.113 260.653 269.153 263.236 C 266.332 270.826 262.417 281.816 262.417 282.144 C 262.417 282.311 268.597 288.691 276.151 296.321 C 289.214 309.515 301.329 321.813 314.681 335.434 C 318.004 338.824 325.805 346.748 332.016 353.043 C 338.227 359.337 343.925 365.15 344.677 365.959 L 346.047 367.425 L 346.053 346.786 L 346.059 326.148 L 344.697 323.894 C 343.947 322.654 342.52 320.319 341.523 318.705 C 340.527 317.091 338.546 313.855 337.122 311.514 C 334.738 307.599 332.292 303.642 320.515 284.66 C 318.212 280.948 314.519 274.939 312.309 271.308 C 307.16 262.847 304.15 258.091 303.525 257.431 C 303.064 256.945 301.954 256.903 287.639 256.827 C 279.174 256.782 272.03 256.793 271.762 256.851 M 176.092 301.753 C 159.305 318.771 154.161 324.013 153.49 324.78 C 153.111 325.215 145.667 332.796 136.95 341.623 C 128.233 350.452 116.462 362.376 110.788 368.126 L 100.473 378.578 L 128.839 378.653 L 157.202 378.729 L 183.398 352.518 L 209.597 326.302 L 209.519 315.2 L 209.442 304.097 L 207.241 303.229 C 204.419 302.114 191.41 296.673 189.485 295.802 C 188.096 295.172 184.32 293.612 184.185 293.612 C 184.151 293.612 180.509 297.276 176.092 301.753" stroke="none" fill="#1c5566" fill-rule="evenodd" style="stroke-width: 1;"/>
    <path d="M 150.028 256.922 L 163.979 256.927 C 163.979 256.927 172.197 280.414 172.837 282.022 L 163.434 291.789 L 174.161 303.596 L 184.127 293.639 C 183.731 294.155 209.45 304.113 209.45 304.113 L 209.616 320.306 L 225.487 321.033 L 225.307 304.243 L 250.601 293.612 L 264.118 306.858 L 275.716 295.913 L 262.393 282.091 L 271.499 256.845 L 292.267 256.703 L 291.962 240.784 L 271.284 240.81 C 270.82 239.555 262.089 215.436 262.089 215.436 L 274.77 202.667 L 262.754 191.918 L 250.231 203.905 C 250.231 203.905 225.842 193.597 225.797 193.575 L 225.71 178.702 L 209.565 179.445 L 209.333 193.477 L 184.516 203.805 L 175.4 195.064 L 164.377 206.706 L 172.618 215.439 L 163.908 240.791 L 150.343 240.749 M 197.048 216.222 L 220.931 240.81 C 220.931 240.81 254.042 240.746 254.112 240.676 C 254.182 240.606 246.636 219.8 246.636 219.8 C 246.636 219.8 217.571 207.55 217.365 207.564 M 185.372 228.39 C 185.207 228.508 178.186 248.196 178.186 248.576 C 178.186 248.954 185.388 269.253 185.773 269.253 C 186.235 269.253 205.774 249.242 205.774 248.769 C 205.774 248.115 185.752 228.115 185.372 228.39 M 221.294 256.861 C 220.728 256.933 217.398 260.137 208.674 269.005 C 202.156 275.631 196.876 281.139 196.94 281.243 C 197.005 281.347 197.864 281.781 198.848 282.208 C 199.832 282.635 202.354 283.737 204.452 284.657 C 213.281 288.529 217.001 290.091 217.395 290.091 C 217.792 290.091 219.064 289.574 226.465 286.41 C 229.337 285.181 234.732 282.907 243.78 279.107 L 246.714 277.874 L 247.959 274.517 C 248.643 272.671 249.59 270.104 250.063 268.813 C 250.536 267.521 251.712 264.351 252.675 261.769 C 253.639 259.186 254.383 257.025 254.327 256.965 C 254.203 256.831 222.34 256.73 221.294 256.861" stroke="none" fill-rule="evenodd" style="stroke-width: 1; fill: rgb(46, 159, 192);"/>
  </g>
</svg>